<svg width="56" height="54" viewBox="0 0 56 54" fill="none" xmlns="http://www.w3.org/2000/svg">
<path d="M29.6033 53.7747C44.1816 53.7747 55.9997 41.9566 55.9997 27.3784C55.9997 12.8001 44.1816 0.982056 29.6033 0.982056C15.0251 0.982056 3.20703 12.8001 3.20703 27.3784C3.20703 41.9566 15.0251 53.7747 29.6033 53.7747Z" fill="url(#paint0_linear_5216_788)"/>
<path d="M48.1902 13.4945C47.2844 12.8292 46.324 12.2189 45.3176 11.6647C44.7633 10.6581 44.1531 9.69777 43.4877 8.792C39.7929 3.76221 34.8621 0.992188 29.6039 0.992188C24.3456 0.992188 19.4148 3.76221 15.72 8.792C15.0546 9.69777 14.4445 10.6582 13.8903 11.6647C12.8837 12.2189 11.9234 12.8291 11.0176 13.4945C5.9878 17.1894 3.21777 22.12 3.21777 27.3783C3.21777 32.6366 5.9878 37.5673 11.0176 41.2621C11.9234 41.9275 12.8838 42.5377 13.8903 43.0919C14.4445 44.0984 15.0546 45.0588 15.72 45.9646C19.4149 50.9944 24.3456 53.7644 29.6039 53.7644C34.8621 53.7644 39.7929 50.9944 43.4877 45.9646C44.1531 45.0588 44.7633 44.0984 45.3176 43.0918C46.324 42.5376 47.2845 41.9274 48.1902 41.262C53.22 37.5672 55.99 32.6365 55.99 27.3782C55.99 22.1199 53.22 17.1894 48.1902 13.4945ZM29.6039 52.5223C28.1548 52.5223 26.6189 50.3637 25.4045 46.6804C26.7808 46.8422 28.1837 46.9261 29.6039 46.9261C31.0241 46.9261 32.4269 46.8422 33.8032 46.6804C32.5889 50.3638 31.053 52.5223 29.6039 52.5223ZM29.6039 45.684C28.0339 45.684 26.4975 45.5777 25.0064 45.3763C24.1789 42.4503 23.5781 38.9379 23.2343 35.1031C25.2926 35.2502 27.4282 35.3261 29.6039 35.3261C31.7795 35.3261 33.9151 35.2502 35.9735 35.1031C35.6298 38.9379 35.029 42.4502 34.2015 45.3763C32.6776 45.5817 31.1416 45.6845 29.6039 45.684ZM29.6039 2.2344C31.053 2.2344 32.5889 4.39303 33.8032 8.0763C32.4269 7.91434 31.0241 7.83045 29.6039 7.83045C28.1837 7.83045 26.7808 7.91434 25.4045 8.0763C26.6189 4.39292 28.1548 2.2344 29.6039 2.2344ZM29.6039 9.07266C31.174 9.07266 32.7103 9.17895 34.2015 9.38044C35.029 12.3065 35.6298 15.8188 35.9735 19.6536C33.9151 19.5064 31.7795 19.4306 29.6039 19.4306C27.4282 19.4306 25.2928 19.5064 23.2343 19.6536C23.5779 15.8188 24.1788 12.3065 25.0064 9.38044C26.5303 9.17503 28.0662 9.0722 29.6039 9.07266ZM22.8982 27.3783C22.8982 25.1635 22.978 22.9932 23.1319 20.9063C25.2187 20.7524 27.389 20.6726 29.6039 20.6726C31.8186 20.6726 33.989 20.7524 36.0758 20.9063C36.2298 22.9932 36.3096 25.1634 36.3096 27.3783C36.3096 29.5931 36.2298 31.7634 36.0758 33.8501C33.989 34.0041 31.8186 34.0839 29.6039 34.0839C27.3891 34.0839 25.2187 34.0041 23.1319 33.8501C22.978 31.7635 22.8982 29.5931 22.8982 27.3783ZM21.8791 33.7479C18.0443 33.4042 14.5319 32.8034 11.6059 31.9758C11.4045 30.4846 11.2981 28.9483 11.2981 27.3783C11.2981 25.8083 11.4044 24.2719 11.6059 22.7808C14.5319 21.9533 18.0443 21.3525 21.8791 21.0087C21.7319 23.0671 21.656 25.2026 21.656 27.3783C21.656 29.5539 21.7318 31.6895 21.8791 33.7479ZM37.3288 21.0088C41.1636 21.3525 44.6759 21.9533 47.6019 22.7809C47.8033 24.272 47.9097 25.8084 47.9097 27.3784C47.9097 28.9484 47.8034 30.4848 47.6019 31.9759C44.6759 32.8035 41.1636 33.4042 37.3288 33.748C37.4759 31.6896 37.5518 29.5541 37.5518 27.3784C37.5518 25.2026 37.4759 23.0672 37.3288 21.0088ZM37.2292 19.7531C36.9021 15.9943 36.3319 12.5282 35.547 9.5906C38.7862 10.1643 41.7817 11.1958 44.3967 12.5856C45.7864 15.2006 46.8179 18.1959 47.3917 21.4352C44.4541 20.6504 40.988 20.0802 37.2292 19.7531ZM21.9785 19.7531C18.2197 20.0802 14.7537 20.6504 11.8161 21.4352C12.3898 18.1959 13.4213 15.2006 14.8111 12.5856C17.4261 11.1958 20.4214 10.1643 23.6606 9.5906C22.8759 12.5282 22.3058 15.9943 21.9785 19.7531ZM10.3018 31.5776C6.61851 30.3633 4.45988 28.8274 4.45988 27.3783C4.45988 25.9292 6.6184 24.3933 10.3018 23.1789C10.1399 24.5552 10.0559 25.9581 10.0559 27.3783C10.0559 28.7985 10.1399 30.2013 10.3018 31.5776ZM21.9785 35.0036C22.3056 38.7624 22.8759 42.2285 23.6606 45.1661C20.4214 44.5924 17.4261 43.5609 14.8111 42.1711C13.4213 39.5561 12.3898 36.5608 11.8161 33.3215C14.7538 34.1063 18.2198 34.6765 21.9785 35.0036ZM37.2292 35.0036C40.988 34.6765 44.4541 34.1063 47.3917 33.3215C46.8179 36.5608 45.7864 39.5561 44.3967 42.1711C41.7817 43.561 38.7863 44.5924 35.547 45.1661C36.3319 42.2285 36.9021 38.7623 37.2292 35.0036ZM48.906 23.1791C52.5892 24.3934 54.7478 25.9292 54.7478 27.3784C54.7478 28.8275 52.5892 30.3634 48.906 31.5777C49.0698 30.184 49.1518 28.7818 49.1517 27.3784C49.1519 25.975 49.0699 24.5728 48.906 23.1791ZM54.4545 24.5809C53.2391 23.5445 51.3124 22.6128 48.7184 21.8156C48.2667 18.9555 47.4671 16.2306 46.3479 13.7347C50.5949 16.5001 53.5485 20.2977 54.4545 24.5809ZM43.2477 10.6344C40.7518 9.51517 38.0268 8.71558 35.1667 8.26373C34.3695 5.66961 33.4378 3.743 32.4014 2.52758C36.6846 3.43368 40.4821 6.38729 43.2477 10.6344ZM26.8065 2.52769C25.7701 3.74311 24.8384 5.66972 24.0412 8.26384C21.181 8.71558 18.456 9.51517 15.9602 10.6344C18.7256 6.38729 22.5232 3.43368 26.8065 2.52769ZM12.8599 13.7346C11.7408 16.2304 10.9411 18.9555 10.4893 21.8156C7.8952 22.6128 5.96858 23.5445 4.75316 24.5809C5.65915 20.2977 8.61288 16.5001 12.8599 13.7346ZM4.75316 30.1758C5.96858 31.2122 7.8952 32.1439 10.4893 32.9411C10.9411 35.8012 11.7408 38.5262 12.8599 41.0221C8.61288 38.2566 5.65915 34.459 4.75316 30.1758ZM15.9601 44.1223C18.4559 45.2415 21.1809 46.0411 24.0411 46.4928C24.8383 49.087 25.77 51.0136 26.8064 52.229C22.5232 51.323 18.7256 48.3693 15.9601 44.1223ZM32.4012 52.229C33.4377 51.0136 34.3694 49.087 35.1665 46.4928C38.0267 46.0411 40.7517 45.2414 43.2476 44.1223C40.4821 48.3693 36.6846 51.323 32.4012 52.229ZM46.3479 41.0221C47.4671 38.5262 48.2667 35.8012 48.7184 32.9412C51.3125 32.144 53.2392 31.2123 54.4545 30.1759C53.5485 34.459 50.5949 38.2566 46.3479 41.0221Z" fill="url(#paint1_linear_5216_788)"/>
<path d="M20.5251 2.58546C13.9162 5.00619 8.54567 9.99426 5.61995 16.3417C5.27319 17.094 5.10156 17.9151 5.10156 18.7434C5.10159 20.2863 5.71447 21.7659 6.80539 22.8569L7.34486 23.3964C8.54194 24.5935 9.9631 25.5431 11.5272 26.1909C13.0912 26.8388 14.7676 27.1722 16.4606 27.1722C16.5829 27.1735 16.7042 27.1506 16.8176 27.1047C16.931 27.0588 17.0341 26.9909 17.1211 26.9049C17.208 26.8189 17.277 26.7165 17.3241 26.6036C17.3713 26.4908 17.3955 26.3697 17.3955 26.2474C17.3955 26.1251 17.3713 26.004 17.3241 25.8911C17.277 25.7782 17.208 25.6758 17.1211 25.5898C17.0341 25.5038 16.931 25.4359 16.8176 25.39C16.7042 25.3442 16.5829 25.3212 16.4606 25.3226H13.6176C12.3065 25.3226 11.2434 24.2597 11.2434 22.9484C11.2434 21.6372 12.3063 20.5742 13.6176 20.5742H15.8381C17.1564 20.5742 18.4618 20.3146 19.6798 19.8101C20.8978 19.3056 22.0045 18.5661 22.9367 17.6339L26.3651 14.2055C27.1117 13.4589 28.1242 13.0395 29.18 13.0394C29.9285 13.0395 30.6618 12.8285 31.2959 12.4306C31.9299 12.0328 32.4389 11.4643 32.7645 10.7903C33.5788 9.10485 32.3508 7.14781 30.479 7.14781H26.0556C24.755 7.14781 23.7007 6.09358 23.7007 4.79295C23.7006 3.15183 22.0663 2.02095 20.5251 2.58546Z" fill="url(#paint2_linear_5216_788)"/>
<path d="M55.3854 21.6909C55.0209 20.031 53.5367 18.8569 51.8373 18.8569H46.1272C42.7465 18.8569 40.0059 21.5975 40.0059 24.9783V25.7231C40.0059 28.6925 42.4131 31.0997 45.3825 31.0997C46.8923 31.0997 48.1163 32.3237 48.1163 33.8335V40.9723C48.1163 42.8326 50.5318 43.5737 51.5656 42.0271C53.714 38.8131 55.1755 35.1004 55.7402 31.0997C55.9133 29.8668 56.0001 28.6234 56 27.3784C55.9999 25.4254 55.7876 23.5226 55.3854 21.6909Z" fill="url(#paint3_linear_5216_788)"/>
<path d="M41.4115 3.76587C43.1919 7.31901 44.1954 11.3289 44.1954 15.5737C44.1954 30.152 32.3774 41.9701 17.7991 41.9701C13.5543 41.9701 9.54436 40.9666 5.99121 39.1862C10.3252 47.8359 19.2702 53.7746 29.6037 53.7746C44.1819 53.7746 56 41.9567 56 27.3783C56 17.0449 50.0612 8.09983 41.4115 3.76587Z" fill="url(#paint4_linear_5216_788)"/>
<path d="M42.9264 16.4709C41.603 15.1474 38.313 16.2419 32.0498 22.0918L28.3897 21.6407L27.2074 20.4209C26.5754 19.789 25.551 19.789 24.919 20.4209C24.7729 20.5673 24.6564 20.7406 24.5762 20.9313L23.6349 19.9842C23.003 19.3523 21.9785 19.3523 21.3466 19.9842C21.1431 20.1878 20.9979 20.4423 20.9262 20.721L19.5106 20.5466C19.1731 20.5049 18.7857 20.6593 18.493 20.9522L16.0701 23.3751C15.8143 23.6308 15.8155 23.9992 16.0726 24.1099L23.3642 31.2354C21.2384 33.7084 19.2961 36.1539 17.8048 38.2613L14.1749 37.7686C14.0291 37.7489 13.8607 37.8151 13.7335 37.9422L12.6028 39.073C12.3845 39.2913 12.3649 39.6044 12.5618 39.7309L15.2879 42.3762C14.8303 43.3773 14.7041 44.0865 15.0075 44.3899L23.737 53.1194C25.662 53.5559 27.6298 53.7757 29.6037 53.7748C43.4804 53.7748 54.8555 43.0667 55.9183 29.4628L42.9264 16.4709Z" fill="url(#paint5_linear_5216_788)"/>
<path d="M22.4901 22.7464C23.3838 22.7464 24.1082 22.022 24.1082 21.1283C24.1082 20.2347 23.3838 19.5103 22.4901 19.5103C21.5965 19.5103 20.8721 20.2347 20.8721 21.1283C20.8721 22.022 21.5965 22.7464 22.4901 22.7464Z" fill="url(#paint6_linear_5216_788)"/>
<path d="M22.4901 22.4788C23.236 22.4788 23.8406 21.8742 23.8406 21.1283C23.8406 20.3825 23.236 19.7778 22.4901 19.7778C21.7443 19.7778 21.1396 20.3825 21.1396 21.1283C21.1396 21.8742 21.7443 22.4788 22.4901 22.4788Z" fill="url(#paint7_linear_5216_788)"/>
<path d="M24.0263 20.6166C23.947 20.855 23.8131 21.0716 23.6352 21.249C23.0033 21.881 21.9788 21.881 21.3469 21.249C21.169 21.0716 21.035 20.855 20.9558 20.6166C20.7687 21.1793 20.899 21.8245 21.3469 22.2724C21.9788 22.9043 23.0033 22.9043 23.6352 22.2724C24.0831 21.8245 24.2134 21.1794 24.0263 20.6166Z" fill="url(#paint8_linear_5216_788)"/>
<path d="M22.4901 22.7464C23.3838 22.7464 24.1082 22.022 24.1082 21.1283C24.1082 20.2347 23.3838 19.5103 22.4901 19.5103C21.5965 19.5103 20.8721 20.2347 20.8721 21.1283C20.8721 22.022 21.5965 22.7464 22.4901 22.7464Z" fill="url(#paint9_linear_5216_788)"/>
<path d="M27.2076 22.7092C26.5756 23.3411 25.5512 23.3411 24.9193 22.7092C24.2873 22.0772 24.2873 21.0528 24.9193 20.4208C25.5512 19.7889 26.5756 19.7889 27.2076 20.4208C27.8394 21.0528 27.8394 22.0773 27.2076 22.7092Z" fill="url(#paint10_linear_5216_788)"/>
<path d="M26.0634 22.9156C26.8092 22.9156 27.4138 22.3109 27.4138 21.5651C27.4138 20.8192 26.8092 20.2146 26.0634 20.2146C25.3175 20.2146 24.7129 20.8192 24.7129 21.5651C24.7129 22.3109 25.3175 22.9156 26.0634 22.9156Z" fill="url(#paint11_linear_5216_788)"/>
<path d="M27.5986 21.0533C27.5193 21.2918 27.3853 21.5083 27.2075 21.6858C26.5755 22.3177 25.5511 22.3177 24.9191 21.6858C24.7412 21.5084 24.6073 21.2918 24.528 21.0533C24.3409 21.6161 24.4713 22.2613 24.9191 22.7092C25.5511 23.3411 26.5755 23.3411 27.2075 22.7092C27.6553 22.2612 27.7857 21.6161 27.5986 21.0533Z" fill="url(#paint12_linear_5216_788)"/>
<path d="M27.2076 22.7092C26.5756 23.3411 25.5512 23.3411 24.9193 22.7092C24.2873 22.0772 24.2873 21.0528 24.9193 20.4208C25.5512 19.7889 26.5756 19.7889 27.2076 20.4208C27.8394 21.0528 27.8394 22.0773 27.2076 22.7092Z" fill="url(#paint13_linear_5216_788)"/>
<path d="M38.2685 38.5247C39.1621 38.5247 39.8865 37.8003 39.8865 36.9066C39.8865 36.013 39.1621 35.2886 38.2685 35.2886C37.3748 35.2886 36.6504 36.013 36.6504 36.9066C36.6504 37.8003 37.3748 38.5247 38.2685 38.5247Z" fill="url(#paint14_linear_5216_788)"/>
<path d="M38.2684 38.2571C39.0143 38.2571 39.6189 37.6525 39.6189 36.9066C39.6189 36.1608 39.0143 35.5562 38.2684 35.5562C37.5226 35.5562 36.918 36.1608 36.918 36.9066C36.918 37.6525 37.5226 38.2571 38.2684 38.2571Z" fill="url(#paint15_linear_5216_788)"/>
<path d="M38.7802 35.3712C38.5418 35.4506 38.3252 35.5845 38.1477 35.7624C37.5158 36.3943 37.5158 37.4188 38.1477 38.0507C38.3252 38.2286 38.5417 38.3625 38.7802 38.4418C38.2174 38.6289 37.5722 38.4986 37.1243 38.0507C36.4924 37.4188 36.4924 36.3943 37.1243 35.7624C37.5722 35.3145 38.2173 35.1842 38.7802 35.3712Z" fill="url(#paint16_linear_5216_788)"/>
<path d="M38.2685 38.5247C39.1621 38.5247 39.8865 37.8003 39.8865 36.9066C39.8865 36.013 39.1621 35.2886 38.2685 35.2886C37.3748 35.2886 36.6504 36.013 36.6504 36.9066C36.6504 37.8003 37.3748 38.5247 38.2685 38.5247Z" fill="url(#paint17_linear_5216_788)"/>
<path d="M36.6878 32.19C36.0559 32.8219 36.0559 33.8464 36.6878 34.4783C37.3197 35.1102 38.3442 35.1102 38.9761 34.4783C39.608 33.8464 39.608 32.8219 38.9761 32.19C38.3442 31.5581 37.3197 31.5581 36.6878 32.19Z" fill="url(#paint18_linear_5216_788)"/>
<path d="M37.8319 34.6847C38.5778 34.6847 39.1824 34.0801 39.1824 33.3342C39.1824 32.5884 38.5778 31.9838 37.8319 31.9838C37.0861 31.9838 36.4814 32.5884 36.4814 33.3342C36.4814 34.0801 37.0861 34.6847 37.8319 34.6847Z" fill="url(#paint19_linear_5216_788)"/>
<path d="M38.3437 31.7988C38.1052 31.8782 37.8887 32.0121 37.7112 32.19C37.0793 32.8219 37.0793 33.8464 37.7112 34.4783C37.8886 34.6562 38.1052 34.7901 38.3437 34.8694C37.7809 35.0565 37.1357 34.9262 36.6878 34.4783C36.0559 33.8464 36.0559 32.8219 36.6878 32.19C37.1357 31.7421 37.7808 31.6119 38.3437 31.7988Z" fill="url(#paint20_linear_5216_788)"/>
<path d="M36.6878 32.19C36.0559 32.8219 36.0559 33.8464 36.6878 34.4783C37.3197 35.1102 38.3442 35.1102 38.9761 34.4783C39.608 33.8464 39.608 32.8219 38.9761 32.19C38.3442 31.5581 37.3197 31.5581 36.6878 32.19Z" fill="url(#paint21_linear_5216_788)"/>
<path d="M12.5618 39.7308L16.03 41.9591L19.4982 38.491L14.1749 37.7686C14.0291 37.7488 13.8606 37.815 13.7335 37.9422L12.6027 39.0729C12.3844 39.2912 12.365 39.6043 12.5618 39.7308Z" fill="url(#paint22_linear_5216_788)"/>
<path d="M12.941 38.7347L12.6028 39.0729C12.3845 39.2911 12.3649 39.6043 12.5618 39.7308L16.0301 41.9592L18.7057 39.2836L13.3824 38.5611C13.2366 38.5413 13.0681 38.6076 12.941 38.7347Z" fill="url(#paint23_linear_5216_788)"/>
<path d="M19.6659 46.8355L17.4375 43.3672L20.9057 39.899L21.6281 45.2223C21.6478 45.3682 21.5816 45.5367 21.4546 45.6638L20.3238 46.7945C20.1054 47.0128 19.7924 47.0322 19.6659 46.8355Z" fill="url(#paint24_linear_5216_788)"/>
<path d="M20.662 46.4562L20.3238 46.7944C20.1055 47.0127 19.7924 47.0323 19.6659 46.8354L17.4375 43.3671L20.1131 40.6915L20.8355 46.0148C20.8554 46.1606 20.789 46.3292 20.662 46.4562Z" fill="url(#paint25_linear_5216_788)"/>
<path d="M16.0724 24.1099L27.109 28.8664L33.6823 22.293L19.5105 20.5466C19.1729 20.505 18.7855 20.6594 18.4928 20.9522L16.0699 23.3752C15.8142 23.6307 15.8154 23.9991 16.0724 24.1099Z" fill="url(#paint26_linear_5216_788)"/>
<path d="M16.9312 22.5138L16.0699 23.3751C15.8142 23.6308 15.8154 23.9992 16.0725 24.1099L27.1091 28.8664L32.1208 23.8547L17.9489 22.1083C17.6114 22.0666 17.2241 22.221 16.9312 22.5138Z" fill="url(#paint27_linear_5216_788)"/>
<path d="M23.2386 22.76L17.9489 22.1081C17.6114 22.0665 17.2241 22.2209 16.9312 22.5138L16.0699 23.3751C15.8142 23.6308 15.8154 23.9992 16.0725 24.1099L20.1371 25.8616L23.2386 22.76Z" fill="url(#paint28_linear_5216_788)"/>
<path d="M16.0724 24.1098L27.109 28.8663L29.3694 26.6059L17.134 22.311L16.07 23.375C15.8142 23.6307 15.8154 23.9991 16.0724 24.1098Z" fill="url(#paint29_linear_5216_788)"/>
<path d="M35.2876 43.3248L30.5312 32.2881L37.1045 25.7148L38.851 39.8867C38.8926 40.2242 38.7382 40.6116 38.4454 40.9044L36.0225 43.3272C35.7668 43.5829 35.3984 43.5817 35.2876 43.3248Z" fill="url(#paint30_linear_5216_788)"/>
<path d="M36.8837 42.4659L36.0224 43.3272C35.7667 43.5829 35.3983 43.5817 35.2876 43.3246L30.5312 32.288L35.5429 27.2764L37.2893 41.4482C37.331 41.7857 37.1766 42.173 36.8837 42.4659Z" fill="url(#paint31_linear_5216_788)"/>
<path d="M36.6377 36.1586L37.2896 41.4483C37.3312 41.7858 37.1768 42.1731 36.8839 42.4659L36.0226 43.3272C35.7669 43.583 35.3985 43.5818 35.2878 43.3247L33.5361 39.2601L36.6377 36.1586Z" fill="url(#paint32_linear_5216_788)"/>
<path d="M35.2876 43.3247L30.5312 32.2881L32.7917 30.0277L37.0864 42.2633L36.0224 43.3273C35.7668 43.5829 35.3984 43.5817 35.2876 43.3247Z" fill="url(#paint33_linear_5216_788)"/>
<path d="M35.1735 29.5497C27.4639 37.2593 16.4781 45.8604 15.0074 44.3897C13.5367 42.919 22.1379 31.9333 29.8474 24.2237C37.557 16.5141 41.4556 15 42.9263 16.4707C44.3971 17.9416 42.8831 21.8402 35.1735 29.5497Z" fill="url(#paint34_linear_5216_788)"/>
<path d="M34.6024 29.3243C27.2692 36.6575 16.9401 44.9588 15.6894 43.708C14.4387 42.4572 22.74 32.1282 30.0731 24.795C37.4062 17.4619 40.9943 15.9017 42.2449 17.1524C43.4957 18.4031 41.9354 21.9912 34.6024 29.3243Z" fill="url(#paint35_linear_5216_788)"/>
<path d="M35.1739 29.5497C42.8834 21.84 44.3975 17.9415 42.9268 16.4708L15.0078 44.3898C16.4786 45.8605 27.4643 37.2593 35.1739 29.5497Z" fill="url(#paint36_linear_5216_788)"/>
<path d="M36.3601 19.3305C35.8589 19.7674 35.3632 20.2105 34.8729 20.6597C34.7401 20.7814 34.7522 20.9702 34.8959 20.9961C35.7848 21.1562 36.5872 21.5455 37.2196 22.1779C37.8519 22.8103 38.2413 23.6128 38.4014 24.5016C38.4273 24.6453 38.616 24.6574 38.7377 24.5245C39.1869 24.0343 39.63 23.5385 40.067 23.0373C40.3468 22.7159 40.4673 22.3116 40.3767 21.9853C40.1787 21.2723 39.8202 20.629 39.2943 20.1032C38.7683 19.5772 38.125 19.2187 37.4122 19.0207C37.0858 18.93 36.6815 19.0506 36.3601 19.3305Z" fill="url(#paint37_linear_5216_788)"/>
<path d="M40.0668 23.0372C39.7055 23.4534 39.319 23.8871 38.9072 24.3395L38.7381 24.525C38.6163 24.6579 38.4274 24.6458 38.401 24.502C38.2418 23.6126 37.852 22.8099 37.2196 22.1774C37.1822 22.1401 37.1449 22.1039 37.1065 22.0698C36.6574 21.6537 36.1303 21.3528 35.5527 21.1617C36.0721 20.6885 36.5651 20.2471 37.0362 19.8375C37.3579 19.5575 37.762 19.4367 38.0881 19.5279C38.4757 19.6355 38.8425 19.7903 39.1818 19.9945C39.2202 20.0297 39.2575 20.0659 39.2948 20.1032C39.8208 20.6292 40.1788 21.2727 40.3764 21.9853C40.4676 22.3114 40.3468 22.7155 40.0668 23.0372Z" fill="url(#paint38_linear_5216_788)"/>
<path d="M38.4015 24.5016C38.4275 24.6453 38.6162 24.6574 38.7379 24.5245C39.1871 24.0343 39.6302 23.5385 40.0672 23.0373C40.3469 22.7159 40.4675 22.3116 40.3769 21.9853C40.1788 21.2723 39.8203 20.629 39.2945 20.1031L37.2197 22.1779C37.8521 22.8103 38.2415 23.6128 38.4015 24.5016Z" fill="url(#paint39_linear_5216_788)"/>
<path d="M17.5983 42.0309L17.3663 41.7989C17.1722 41.6048 17.2388 41.2318 17.511 40.9882L21.5183 37.4009C21.6943 37.2433 21.9276 37.2184 22.0531 37.344C22.1786 37.4695 22.1538 37.7028 21.9961 37.8789L18.4088 41.8862C18.1653 42.1582 17.7923 42.2249 17.5983 42.0309Z" fill="url(#paint40_linear_5216_788)"/>
<path d="M3.50867 50.2294C3.27831 50.2294 3.05661 50.2154 2.84524 50.1876C2.548 50.1484 2.35321 49.8567 2.43336 49.5678L2.65319 48.7744C2.71666 48.5455 2.93429 48.3935 3.1707 48.4167C3.61475 48.4601 4.16552 48.4122 4.79832 48.2738C4.92159 48.2469 5.05048 48.2684 5.1583 48.334C5.26611 48.3995 5.34457 48.504 5.37743 48.6258L5.58924 49.4125C5.66248 49.6846 5.49173 49.9603 5.21656 50.0214C4.59496 50.1596 4.02223 50.2294 3.50867 50.2294ZM7.44888 48.7826L7.14417 48.0283C7.096 47.9092 7.09641 47.7761 7.14531 47.6573C7.19421 47.5386 7.2877 47.4438 7.40573 47.3932C7.95804 47.1554 8.54274 46.8775 9.1526 46.563C9.26737 46.5038 9.40084 46.4922 9.52416 46.5305C9.64747 46.5689 9.75074 46.6543 9.81164 46.7682L10.1944 47.486C10.225 47.5436 10.2439 47.6067 10.2499 47.6716C10.2559 47.7366 10.249 47.8021 10.2295 47.8644C10.21 47.9266 10.1784 47.9844 10.1364 48.0343C10.0944 48.0842 10.0429 48.1253 9.98491 48.1552C9.32817 48.4941 8.69636 48.794 8.09738 49.0513C7.8445 49.16 7.55209 49.0381 7.44888 48.7826ZM0.792345 48.1535C0.513992 48.2714 0.193914 48.1134 0.122651 47.8195C0.0411765 47.483 0 47.1155 0 46.7207C0 46.3055 0.0455686 45.851 0.135937 45.3648C0.187435 45.0874 0.459639 44.9082 0.734039 44.9734L1.52638 45.1618C1.64842 45.1908 1.75474 45.2654 1.8235 45.3703C1.89225 45.4752 1.91823 45.6024 1.89609 45.7259C1.82999 46.09 1.79661 46.4232 1.79661 46.7205C1.79661 46.9274 1.81275 47.116 1.84449 47.285C1.86579 47.3954 1.84861 47.5098 1.7958 47.6091C1.74299 47.7083 1.65774 47.7865 1.55427 47.8305L0.792345 48.1535ZM11.8806 46.5367L11.4659 45.8368C11.3999 45.7257 11.3804 45.593 11.4116 45.4676C11.4429 45.3422 11.5224 45.2341 11.6328 45.167C12.1962 44.8253 12.7535 44.4738 13.3046 44.1127C13.4131 44.0419 13.5452 44.0168 13.6721 44.0429C13.7989 44.0691 13.9104 44.1442 13.9821 44.2521L14.4327 44.9294C14.4687 44.9835 14.4935 45.0443 14.5059 45.1081C14.5182 45.1719 14.5178 45.2375 14.5047 45.3011C14.4915 45.3648 14.4659 45.4252 14.4293 45.4789C14.3927 45.5326 14.3459 45.5785 14.2914 45.614C13.7203 45.9882 13.1427 46.3525 12.5588 46.7066C12.5032 46.7403 12.4415 46.7627 12.3772 46.7724C12.3129 46.7821 12.2473 46.779 12.1842 46.7632C12.1212 46.7474 12.0618 46.7192 12.0097 46.6804C11.9576 46.6415 11.9137 46.5927 11.8806 46.5367ZM16.7119 43.956C16.6592 43.9938 16.5995 44.0208 16.5362 44.0354C16.473 44.0501 16.4074 44.0521 16.3434 44.0413C16.2794 44.0305 16.2182 44.0071 16.1632 43.9726C16.1083 43.938 16.0607 43.8929 16.0232 43.8399M2.08232 43.3877L1.32303 43.0956C1.06565 42.9965 0.938824 42.7056 1.04391 42.4507C1.29206 41.8486 1.58502 41.2118 1.91904 40.5483C2.04246 40.3031 2.34311 40.2053 2.58654 40.3323L3.30784 40.7085C3.42223 40.7683 3.50849 40.8707 3.54802 40.9936C3.58755 41.1165 3.57716 41.25 3.51911 41.3653C3.21067 41.9783 2.94077 42.5644 2.7126 43.1164C2.66388 43.2351 2.57062 43.3299 2.4528 43.3806C2.33499 43.4314 2.20199 43.4339 2.08232 43.3877ZM4.22526 39.0482L3.52251 38.6385C3.46636 38.6058 3.41724 38.5624 3.37799 38.5106C3.33875 38.4588 3.31016 38.3998 3.29387 38.3369C3.27758 38.274 3.27393 38.2085 3.28311 38.1442C3.29229 38.0799 3.31413 38.018 3.34737 37.9622L3.36077 37.9397C3.39409 37.8839 3.43814 37.8352 3.49037 37.7965C3.5426 37.7578 3.60198 37.7298 3.66508 37.7142C3.72819 37.6986 3.79376 37.6956 3.85802 37.7055C3.92227 37.7153 3.98394 37.7378 4.03947 37.7716L4.73387 38.1953C4.84441 38.2629 4.92381 38.3714 4.95482 38.4972C4.98582 38.623 4.96592 38.756 4.89945 38.8672L4.8944 38.8757C4.82813 38.9868 4.72065 39.0673 4.59533 39.0996C4.47001 39.1319 4.337 39.1134 4.22526 39.0482ZM43.7608 16.0399L43.0944 15.5734C42.9882 15.4991 42.9156 15.3859 42.8925 15.2583C42.8694 15.1307 42.8977 14.9992 42.9712 14.8924C43.3466 14.3488 43.7138 13.7997 44.0728 13.2451C44.1432 13.1365 44.2537 13.0602 44.3802 13.0326C44.5066 13.0051 44.6389 13.0287 44.7481 13.0982L45.4348 13.5342C45.4896 13.5691 45.537 13.6144 45.5742 13.6676C45.6115 13.7208 45.6378 13.7809 45.6516 13.8444C45.6655 13.9078 45.6666 13.9734 45.655 14.0373C45.6434 14.1012 45.6192 14.1622 45.5839 14.2167C45.2138 14.7885 44.8352 15.3547 44.4482 15.9151C44.4114 15.9686 44.3644 16.0144 44.3099 16.0496C44.2553 16.0849 44.1944 16.109 44.1305 16.1206C44.0666 16.1322 44.001 16.131 43.9376 16.1172C43.8741 16.1033 43.8141 16.077 43.7608 16.0399ZM46.441 11.8854L45.7389 11.4745C45.6273 11.4092 45.546 11.3025 45.5126 11.1776C45.4791 11.0527 45.4963 10.9196 45.5603 10.8073C45.8841 10.2413 46.1932 9.66702 46.4871 9.08499C46.5451 8.96995 46.6459 8.88232 46.7679 8.84104C46.8899 8.79976 47.0233 8.80815 47.1392 8.8644L47.8717 9.2184C47.9304 9.2467 47.983 9.28642 48.0262 9.33524C48.0695 9.38405 48.1026 9.44099 48.1236 9.50273C48.1446 9.56448 48.1531 9.62979 48.1487 9.69485C48.1442 9.75992 48.1268 9.82345 48.0975 9.88173C47.7869 10.4975 47.4601 11.1049 47.1175 11.7035C46.9815 11.9414 46.6775 12.0238 46.441 11.8854ZM48.6517 7.43354L47.8937 7.13828C47.6448 7.04132 47.5206 6.7633 47.6106 6.51185C47.8411 5.86829 48.0059 5.28007 48.1033 4.75422C48.1503 4.50057 48.3864 4.32829 48.6427 4.35815L49.4522 4.45281C49.7332 4.48564 49.9297 4.74796 49.8797 5.02631C49.7642 5.66954 49.5679 6.37778 49.2933 7.14212C49.2709 7.20386 49.2365 7.26051 49.1919 7.30873C49.1474 7.35696 49.0936 7.39579 49.0339 7.42294C48.9741 7.45009 48.9095 7.46502 48.8439 7.46684C48.7782 7.46866 48.7129 7.45734 48.6517 7.43354ZM41.9574 2.81354L41.6207 2.0727C41.5937 2.01322 41.5788 1.94896 41.5769 1.88366C41.575 1.81836 41.5861 1.75334 41.6095 1.69237C41.633 1.63141 41.6684 1.57574 41.7136 1.5286C41.7589 1.48146 41.813 1.4438 41.873 1.41782C42.5817 1.11235 43.2511 0.863864 43.8724 0.675221C43.9358 0.655793 44.0025 0.649373 44.0684 0.656348C44.1343 0.663322 44.1982 0.683546 44.2561 0.715807C44.3141 0.748068 44.3649 0.791701 44.4056 0.844087C44.4462 0.896473 44.4759 0.956533 44.4928 1.02066L44.6992 1.80807C44.7659 2.06248 44.6212 2.32491 44.3697 2.40178C43.8243 2.56835 43.232 2.78895 42.6 3.06082C42.3541 3.16656 42.0681 3.0572 41.9574 2.81354ZM48.4634 2.68771C48.263 2.76479 48.0314 2.70626 47.9023 2.53475C47.8728 2.49544 47.8405 2.45827 47.8058 2.42352C47.54 2.1579 47.1011 2.02284 46.5008 2.02197H46.4838V0.225464V1.12377L46.4848 0.740774C46.4856 0.45155 46.7354 0.222499 47.0232 0.251817C47.8766 0.338781 48.5637 0.640962 49.0761 1.15309C49.2329 1.31012 49.371 1.48486 49.4874 1.67378C49.6484 1.93423 49.5285 2.27781 49.2428 2.38772L48.4634 2.68771Z" fill="url(#paint41_linear_5216_788)"/>
<path d="M18.178 9.16707C19.0254 9.16707 19.7124 8.48009 19.7124 7.63267C19.7124 6.78524 19.0254 6.09827 18.178 6.09827C17.3305 6.09827 16.6436 6.78524 16.6436 7.63267C16.6436 8.48009 17.3305 9.16707 18.178 9.16707Z" fill="url(#paint42_linear_5216_788)"/>
<path d="M10.0022 20.5253C10.8496 20.5253 11.5366 19.8384 11.5366 18.9909C11.5366 18.1435 10.8496 17.4565 10.0022 17.4565C9.15475 17.4565 8.46777 18.1435 8.46777 18.9909C8.46777 19.8384 9.15475 20.5253 10.0022 20.5253Z" fill="url(#paint43_linear_5216_788)"/>
<path d="M51.8401 24.4499C52.6875 24.4499 53.3745 23.7629 53.3745 22.9155C53.3745 22.0681 52.6875 21.3811 51.8401 21.3811C50.9926 21.3811 50.3057 22.0681 50.3057 22.9155C50.3057 23.7629 50.9926 24.4499 51.8401 24.4499Z" fill="url(#paint44_linear_5216_788)"/>
<defs>
<linearGradient id="paint0_linear_5216_788" x1="16.8207" y1="14.5959" x2="48.8139" y2="46.5889" gradientUnits="userSpaceOnUse">
<stop stop-color="#00AEFC"/>
<stop offset="1" stop-color="#3F3CEE"/>
</linearGradient>
<linearGradient id="paint1_linear_5216_788" x1="33.6383" y1="56.4397" x2="24.1403" y2="-11.9779" gradientUnits="userSpaceOnUse">
<stop stop-color="#00AEFC" stop-opacity="0"/>
<stop offset="1" stop-color="#18CFFC"/>
</linearGradient>
<linearGradient id="paint2_linear_5216_788" x1="21.3113" y1="16.7977" x2="62.901" y2="46.3075" gradientUnits="userSpaceOnUse">
<stop stop-color="#E5F3FF"/>
<stop offset="1" stop-color="#B3CCFF"/>
</linearGradient>
<linearGradient id="paint3_linear_5216_788" x1="44.0143" y1="29.6299" x2="62.6519" y2="32.9088" gradientUnits="userSpaceOnUse">
<stop stop-color="#E5F3FF"/>
<stop offset="1" stop-color="#B3CCFF"/>
</linearGradient>
<linearGradient id="paint4_linear_5216_788" x1="38.3195" y1="22.1612" x2="57.7218" y2="-15.7452" gradientUnits="userSpaceOnUse">
<stop stop-color="#3F3CEE" stop-opacity="0"/>
<stop offset="1" stop-color="#2F43BC"/>
</linearGradient>
<linearGradient id="paint5_linear_5216_788" x1="41.1141" y1="42.5775" x2="27.6803" y2="29.1436" gradientUnits="userSpaceOnUse">
<stop stop-color="#3F3CEE" stop-opacity="0"/>
<stop offset="1" stop-color="#2F43BC"/>
</linearGradient>
<linearGradient id="paint6_linear_5216_788" x1="22.4858" y1="20.2406" x2="22.4858" y2="23.2044" gradientUnits="userSpaceOnUse">
<stop stop-color="#F9F7FC"/>
<stop offset="1" stop-color="#F0DDFC"/>
</linearGradient>
<linearGradient id="paint7_linear_5216_788" x1="22.4858" y1="21.8445" x2="22.4858" y2="19.7736" gradientUnits="userSpaceOnUse">
<stop stop-color="#E9EDF5" stop-opacity="0"/>
<stop offset="1" stop-color="white"/>
</linearGradient>
<linearGradient id="paint8_linear_5216_788" x1="22.088" y1="21.575" x2="26.5857" y2="20.2227" gradientUnits="userSpaceOnUse">
<stop stop-color="#F0DDFC" stop-opacity="0"/>
<stop offset="0.289" stop-color="#C8B7E0" stop-opacity="0.289"/>
<stop offset="0.592" stop-color="#A595C8" stop-opacity="0.592"/>
<stop offset="0.84" stop-color="#8F81B8" stop-opacity="0.84"/>
<stop offset="1" stop-color="#8779B3"/>
</linearGradient>
<linearGradient id="paint9_linear_5216_788" x1="22.6322" y1="20.2783" x2="22.3671" y2="21.7605" gradientUnits="userSpaceOnUse">
<stop stop-color="#F0DDFC" stop-opacity="0"/>
<stop offset="0.289" stop-color="#C8B7E0" stop-opacity="0.289"/>
<stop offset="0.592" stop-color="#A595C8" stop-opacity="0.592"/>
<stop offset="0.84" stop-color="#8F81B8" stop-opacity="0.84"/>
<stop offset="1" stop-color="#8779B3"/>
</linearGradient>
<linearGradient id="paint10_linear_5216_788" x1="26.0591" y1="20.6773" x2="26.0591" y2="23.641" gradientUnits="userSpaceOnUse">
<stop stop-color="#F9F7FC"/>
<stop offset="1" stop-color="#F0DDFC"/>
</linearGradient>
<linearGradient id="paint11_linear_5216_788" x1="26.0591" y1="22.2811" x2="26.059" y2="20.2103" gradientUnits="userSpaceOnUse">
<stop stop-color="#E9EDF5" stop-opacity="0"/>
<stop offset="1" stop-color="white"/>
</linearGradient>
<linearGradient id="paint12_linear_5216_788" x1="25.6603" y1="22.0116" x2="30.158" y2="20.6594" gradientUnits="userSpaceOnUse">
<stop stop-color="#F0DDFC" stop-opacity="0"/>
<stop offset="0.289" stop-color="#C8B7E0" stop-opacity="0.289"/>
<stop offset="0.592" stop-color="#A595C8" stop-opacity="0.592"/>
<stop offset="0.84" stop-color="#8F81B8" stop-opacity="0.84"/>
<stop offset="1" stop-color="#8779B3"/>
</linearGradient>
<linearGradient id="paint13_linear_5216_788" x1="26.2055" y1="20.715" x2="25.9404" y2="22.1973" gradientUnits="userSpaceOnUse">
<stop stop-color="#F0DDFC" stop-opacity="0"/>
<stop offset="0.289" stop-color="#C8B7E0" stop-opacity="0.289"/>
<stop offset="0.592" stop-color="#A595C8" stop-opacity="0.592"/>
<stop offset="0.84" stop-color="#8F81B8" stop-opacity="0.84"/>
<stop offset="1" stop-color="#8779B3"/>
</linearGradient>
<linearGradient id="paint14_linear_5216_788" x1="39.1482" y1="36.8986" x2="36.1845" y2="36.8987" gradientUnits="userSpaceOnUse">
<stop stop-color="#F9F7FC"/>
<stop offset="1" stop-color="#F0DDFC"/>
</linearGradient>
<linearGradient id="paint15_linear_5216_788" x1="37.5444" y1="36.8986" x2="39.6153" y2="36.8986" gradientUnits="userSpaceOnUse">
<stop stop-color="#E9EDF5" stop-opacity="0"/>
<stop offset="1" stop-color="white"/>
</linearGradient>
<linearGradient id="paint16_linear_5216_788" x1="37.8139" y1="37.2974" x2="39.1662" y2="32.7996" gradientUnits="userSpaceOnUse">
<stop stop-color="#F0DDFC" stop-opacity="0"/>
<stop offset="0.289" stop-color="#C8B7E0" stop-opacity="0.289"/>
<stop offset="0.592" stop-color="#A595C8" stop-opacity="0.592"/>
<stop offset="0.84" stop-color="#8F81B8" stop-opacity="0.84"/>
<stop offset="1" stop-color="#8779B3"/>
</linearGradient>
<linearGradient id="paint17_linear_5216_788" x1="39.1105" y1="36.7523" x2="37.6283" y2="37.0174" gradientUnits="userSpaceOnUse">
<stop stop-color="#F0DDFC" stop-opacity="0"/>
<stop offset="0.289" stop-color="#C8B7E0" stop-opacity="0.289"/>
<stop offset="0.592" stop-color="#A595C8" stop-opacity="0.592"/>
<stop offset="0.84" stop-color="#8F81B8" stop-opacity="0.84"/>
<stop offset="1" stop-color="#8779B3"/>
</linearGradient>
<linearGradient id="paint18_linear_5216_788" x1="38.7117" y1="33.3261" x2="35.7479" y2="33.3261" gradientUnits="userSpaceOnUse">
<stop stop-color="#F9F7FC"/>
<stop offset="1" stop-color="#F0DDFC"/>
</linearGradient>
<linearGradient id="paint19_linear_5216_788" x1="37.1079" y1="33.3262" x2="39.1787" y2="33.3263" gradientUnits="userSpaceOnUse">
<stop stop-color="#E9EDF5" stop-opacity="0"/>
<stop offset="1" stop-color="white"/>
</linearGradient>
<linearGradient id="paint20_linear_5216_788" x1="37.3774" y1="33.725" x2="38.7296" y2="29.2272" gradientUnits="userSpaceOnUse">
<stop stop-color="#F0DDFC" stop-opacity="0"/>
<stop offset="0.289" stop-color="#C8B7E0" stop-opacity="0.289"/>
<stop offset="0.592" stop-color="#A595C8" stop-opacity="0.592"/>
<stop offset="0.84" stop-color="#8F81B8" stop-opacity="0.84"/>
<stop offset="1" stop-color="#8779B3"/>
</linearGradient>
<linearGradient id="paint21_linear_5216_788" x1="38.6741" y1="33.1798" x2="37.1917" y2="33.4448" gradientUnits="userSpaceOnUse">
<stop stop-color="#F0DDFC" stop-opacity="0"/>
<stop offset="0.289" stop-color="#C8B7E0" stop-opacity="0.289"/>
<stop offset="0.592" stop-color="#A595C8" stop-opacity="0.592"/>
<stop offset="0.84" stop-color="#8F81B8" stop-opacity="0.84"/>
<stop offset="1" stop-color="#8779B3"/>
</linearGradient>
<linearGradient id="paint22_linear_5216_788" x1="15.9979" y1="38.6603" x2="15.6178" y2="41.201" gradientUnits="userSpaceOnUse">
<stop stop-color="#FFDA45"/>
<stop offset="0.304" stop-color="#FFCE3E"/>
<stop offset="0.856" stop-color="#FFAE2B"/>
<stop offset="1" stop-color="#FFA425"/>
</linearGradient>
<linearGradient id="paint23_linear_5216_788" x1="15.1228" y1="39.6852" x2="18.8939" y2="35.8326" gradientUnits="userSpaceOnUse">
<stop stop-color="#FFDA45" stop-opacity="0"/>
<stop offset="1" stop-color="#B53759"/>
</linearGradient>
<linearGradient id="paint24_linear_5216_788" x1="20.7301" y1="43.3888" x2="18.1895" y2="43.769" gradientUnits="userSpaceOnUse">
<stop stop-color="#FFDA45"/>
<stop offset="0.304" stop-color="#FFCE3E"/>
<stop offset="0.856" stop-color="#FFAE2B"/>
<stop offset="1" stop-color="#FFA425"/>
</linearGradient>
<linearGradient id="paint25_linear_5216_788" x1="19.7053" y1="44.2639" x2="23.5579" y2="40.4928" gradientUnits="userSpaceOnUse">
<stop stop-color="#FFDA45" stop-opacity="0"/>
<stop offset="1" stop-color="#B53759"/>
</linearGradient>
<linearGradient id="paint26_linear_5216_788" x1="25.3457" y1="21.9891" x2="21.4031" y2="28.5793" gradientUnits="userSpaceOnUse">
<stop stop-color="#FFDA45"/>
<stop offset="0.304" stop-color="#FFCE3E"/>
<stop offset="0.856" stop-color="#FFAE2B"/>
<stop offset="1" stop-color="#FFA425"/>
</linearGradient>
<linearGradient id="paint27_linear_5216_788" x1="22.2671" y1="26.2893" x2="30.3719" y2="14.2107" gradientUnits="userSpaceOnUse">
<stop stop-color="#FFDA45" stop-opacity="0"/>
<stop offset="1" stop-color="#B53759"/>
</linearGradient>
<linearGradient id="paint28_linear_5216_788" x1="20.2584" y1="24.1951" x2="24.1748" y2="29.1067" gradientUnits="userSpaceOnUse">
<stop stop-color="#F0DDFC" stop-opacity="0"/>
<stop offset="0.289" stop-color="#C8B7E0" stop-opacity="0.289"/>
<stop offset="0.592" stop-color="#A595C8" stop-opacity="0.592"/>
<stop offset="0.84" stop-color="#8F81B8" stop-opacity="0.84"/>
<stop offset="1" stop-color="#8779B3"/>
</linearGradient>
<linearGradient id="paint29_linear_5216_788" x1="22.4451" y1="25.4288" x2="20.808" y2="28.4693" gradientUnits="userSpaceOnUse">
<stop stop-color="#FFDA45" stop-opacity="0"/>
<stop offset="1" stop-color="#B53759"/>
</linearGradient>
<linearGradient id="paint30_linear_5216_788" x1="37.4004" y1="34.0392" x2="30.8103" y2="37.9818" gradientUnits="userSpaceOnUse">
<stop stop-color="#FFDA45"/>
<stop offset="0.304" stop-color="#FFCE3E"/>
<stop offset="0.856" stop-color="#FFAE2B"/>
<stop offset="1" stop-color="#FFA425"/>
</linearGradient>
<linearGradient id="paint31_linear_5216_788" x1="33.8929" y1="36.586" x2="45.9714" y2="28.4812" gradientUnits="userSpaceOnUse">
<stop stop-color="#FFDA45" stop-opacity="0"/>
<stop offset="1" stop-color="#B53759"/>
</linearGradient>
<linearGradient id="paint32_linear_5216_788" x1="35.6553" y1="39.494" x2="30.7437" y2="35.5776" gradientUnits="userSpaceOnUse">
<stop stop-color="#FFDA45" stop-opacity="0"/>
<stop offset="1" stop-color="#B53759"/>
</linearGradient>
<linearGradient id="paint33_linear_5216_788" x1="33.9607" y1="36.9397" x2="30.9203" y2="38.577" gradientUnits="userSpaceOnUse">
<stop stop-color="#FFDA45" stop-opacity="0"/>
<stop offset="1" stop-color="#B53759"/>
</linearGradient>
<linearGradient id="paint34_linear_5216_788" x1="27.8911" y1="29.3573" x2="31.2242" y2="32.6905" gradientUnits="userSpaceOnUse">
<stop stop-color="#E5F3FF"/>
<stop offset="1" stop-color="#B3CCFF"/>
</linearGradient>
<linearGradient id="paint35_linear_5216_788" x1="30.201" y1="31.5334" x2="25.4582" y2="27.2986" gradientUnits="userSpaceOnUse">
<stop stop-color="#E5F3FF" stop-opacity="0"/>
<stop offset="1" stop-color="white"/>
</linearGradient>
<linearGradient id="paint36_linear_5216_788" x1="28.7096" y1="34.7027" x2="36.09" y2="-16.8164" gradientUnits="userSpaceOnUse">
<stop stop-color="#B3CCFF" stop-opacity="0"/>
<stop offset="1" stop-color="#9FB0CB"/>
</linearGradient>
<linearGradient id="paint37_linear_5216_788" x1="36.6112" y1="19.7162" x2="39.5139" y2="24.2775" gradientUnits="userSpaceOnUse">
<stop stop-color="#8B788A"/>
<stop offset="1" stop-color="#6E566E"/>
</linearGradient>
<linearGradient id="paint38_linear_5216_788" x1="38.0957" y1="22.0271" x2="37.3271" y2="19.3644" gradientUnits="userSpaceOnUse">
<stop stop-color="#8B788A" stop-opacity="0"/>
<stop offset="1" stop-color="#9E8C92"/>
</linearGradient>
<linearGradient id="paint39_linear_5216_788" x1="38.6724" y1="22.6129" x2="40.4967" y2="17.9185" gradientUnits="userSpaceOnUse">
<stop stop-color="#555A66" stop-opacity="0"/>
<stop offset="1" stop-color="#555A66"/>
</linearGradient>
<linearGradient id="paint40_linear_5216_788" x1="19.68" y1="39.5445" x2="20.0752" y2="39.9397" gradientUnits="userSpaceOnUse">
<stop stop-color="#E5F3FF"/>
<stop offset="1" stop-color="#B3CCFF"/>
</linearGradient>
<linearGradient id="paint41_linear_5216_788" x1="0" y1="25.2274" x2="49.8874" y2="25.2274" gradientUnits="userSpaceOnUse">
<stop stop-color="#FF7044"/>
<stop offset="1" stop-color="#F92814"/>
</linearGradient>
<linearGradient id="paint42_linear_5216_788" x1="18.059" y1="7.51386" x2="19.7491" y2="9.20385" gradientUnits="userSpaceOnUse">
<stop stop-color="#FF7044"/>
<stop offset="1" stop-color="#F92814"/>
</linearGradient>
<linearGradient id="paint43_linear_5216_788" x1="9.35312" y1="18.3419" x2="11.1963" y2="20.1852" gradientUnits="userSpaceOnUse">
<stop stop-color="#92F37F"/>
<stop offset="1" stop-color="#4AB272"/>
</linearGradient>
<linearGradient id="paint44_linear_5216_788" x1="50.893" y1="21.9684" x2="53.5374" y2="24.6129" gradientUnits="userSpaceOnUse">
<stop stop-color="#92F37F"/>
<stop offset="1" stop-color="#4AB272"/>
</linearGradient>
</defs>
</svg>
