<svg width="20" height="20" viewBox="0 0 20 20" fill="none" xmlns="http://www.w3.org/2000/svg">
<path opacity="0.4" d="M2.5 6.24996C2.5 4.40901 3.99238 2.91663 5.83333 2.91663H14.1667C16.0076 2.91663 17.5 4.40901 17.5 6.24996V7.49996V15C17.5 16.8409 16.0076 18.3333 14.1667 18.3333H5.83333C3.99238 18.3333 2.5 16.8409 2.5 15V7.49996V6.24996Z" fill="#CE6240"/>
<path d="M14.1667 2.91663H5.83333C3.99238 2.91663 2.5 4.40901 2.5 6.24996V7.49996H17.5V6.24996C17.5 4.40901 16.0076 2.91663 14.1667 2.91663Z" fill="#CE6240"/>
<path opacity="0.4" fill-rule="evenodd" clip-rule="evenodd" d="M6.6665 1.04163C7.01168 1.04163 7.2915 1.32145 7.2915 1.66663V4.16663C7.2915 4.5118 7.01168 4.79163 6.6665 4.79163C6.32133 4.79163 6.0415 4.5118 6.0415 4.16663V1.66663C6.0415 1.32145 6.32133 1.04163 6.6665 1.04163ZM13.3332 1.04163C13.6783 1.04163 13.9582 1.32145 13.9582 1.66663V4.16663C13.9582 4.5118 13.6783 4.79163 13.3332 4.79163C12.988 4.79163 12.7082 4.5118 12.7082 4.16663V1.66663C12.7082 1.32145 12.988 1.04163 13.3332 1.04163Z" fill="#CE6240"/>
<circle cx="9.99984" cy="12.5" r="0.833333" fill="#CE6240"/>
<ellipse cx="13.3333" cy="12.5" rx="0.833333" ry="0.833333" fill="#CE6240"/>
<ellipse cx="6.66683" cy="12.5" rx="0.833333" ry="0.833333" fill="#CE6240"/>
</svg>
