<svg width="56" height="56" viewBox="0 0 56 56" fill="none" xmlns="http://www.w3.org/2000/svg">
<g filter="url(#filter0_ii_5168_9579)">
<path d="M48.7495 15.1813H39.807C39.3695 15.1813 39.002 15.4788 38.8795 15.8988C38.547 17.0363 37.4795 17.8762 36.237 17.8762C34.9945 17.8762 33.927 17.0538 33.5945 15.8988C33.472 15.4788 33.1045 15.1813 32.667 15.1813H7.41453C5.29703 15.1813 3.58203 16.8963 3.58203 19.0138V36.9863C3.58203 39.1038 5.29703 40.8188 7.41453 40.8188H32.667C33.1045 40.8188 33.472 40.5213 33.5945 40.1013C33.927 38.9638 34.9945 38.1237 36.237 38.1237C37.4795 38.1237 38.547 38.9463 38.8795 40.1013C39.002 40.5213 39.3695 40.8188 39.807 40.8188H48.7495C50.867 40.8188 52.582 39.1038 52.582 36.9863V19.0138C52.582 16.8963 50.867 15.1813 48.7495 15.1813ZM36.237 35.0788C34.7145 35.0788 33.472 33.8362 33.472 32.3137C33.472 30.7912 34.7145 29.5488 36.237 29.5488C37.7595 29.5488 39.002 30.7912 39.002 32.3137C39.002 33.8362 37.7595 35.0788 36.237 35.0788ZM36.237 26.4687C34.7145 26.4687 33.472 25.2263 33.472 23.7038C33.472 22.1813 34.7145 20.9387 36.237 20.9387C37.7595 20.9387 39.002 22.1813 39.002 23.7038C39.002 25.2263 37.7595 26.4687 36.237 26.4687Z" fill="url(#paint0_linear_5168_9579)"/>
</g>
<path d="M48.7495 15.1813H39.807C39.3695 15.1813 39.002 15.4788 38.8795 15.8988C38.547 17.0363 37.4795 17.8762 36.237 17.8762C34.9945 17.8762 33.927 17.0538 33.5945 15.8988C33.472 15.4788 33.1045 15.1813 32.667 15.1813H7.41453C5.29703 15.1813 3.58203 16.8963 3.58203 19.0138V36.9863C3.58203 39.1038 5.29703 40.8188 7.41453 40.8188H32.667C33.1045 40.8188 33.472 40.5213 33.5945 40.1013C33.927 38.9638 34.9945 38.1237 36.237 38.1237C37.4795 38.1237 38.547 38.9463 38.8795 40.1013C39.002 40.5213 39.3695 40.8188 39.807 40.8188H48.7495C50.867 40.8188 52.582 39.1038 52.582 36.9863V19.0138C52.582 16.8963 50.867 15.1813 48.7495 15.1813ZM36.237 35.0788C34.7145 35.0788 33.472 33.8362 33.472 32.3137C33.472 30.7912 34.7145 29.5488 36.237 29.5488C37.7595 29.5488 39.002 30.7912 39.002 32.3137C39.002 33.8362 37.7595 35.0788 36.237 35.0788ZM36.237 26.4687C34.7145 26.4687 33.472 25.2263 33.472 23.7038C33.472 22.1813 34.7145 20.9387 36.237 20.9387C37.7595 20.9387 39.002 22.1813 39.002 23.7038C39.002 25.2263 37.7595 26.4687 36.237 26.4687Z" fill="url(#paint1_linear_5168_9579)"/>
<path d="M27.4697 31.7013H10.9497C10.4072 31.7013 9.96973 31.2638 9.96973 30.7213C9.96973 30.1788 10.4072 29.7412 10.9497 29.7412H27.4522C27.9947 29.7412 28.4322 30.1788 28.4322 30.7213C28.4497 31.2638 27.9947 31.7013 27.4697 31.7013Z" fill="#D88B4C"/>
<path d="M27.4697 35.5688H10.9497C10.4072 35.5688 9.96973 35.1313 9.96973 34.5888C9.96973 34.0463 10.4072 33.6088 10.9497 33.6088H27.4522C27.9947 33.6088 28.4322 34.0463 28.4322 34.5888C28.4497 35.1138 27.9947 35.5688 27.4697 35.5688Z" fill="#D88B4C"/>
<path d="M18.5797 23.5287H11.4572C10.6347 23.5287 9.96973 22.8637 9.96973 22.0412C9.96973 21.2187 10.6347 20.5537 11.4572 20.5537H18.5797C19.4022 20.5537 20.0672 21.2187 20.0672 22.0412C20.0672 22.8812 19.4022 23.5287 18.5797 23.5287Z" fill="#D6894C"/>
<path d="M48.1021 29.1637H44.2171C43.5871 29.1637 43.0796 29.6712 43.0796 30.3012V34.1862C43.0796 34.8162 43.5871 35.3237 44.2171 35.3237H48.1021C48.7321 35.3237 49.2396 34.8162 49.2396 34.1862V30.3012C49.2396 29.6712 48.7321 29.1637 48.1021 29.1637Z" fill="#D6894C"/>
<defs>
<filter id="filter0_ii_5168_9579" x="3.58203" y="14.8813" width="49" height="26.2375" filterUnits="userSpaceOnUse" color-interpolation-filters="sRGB">
<feFlood flood-opacity="0" result="BackgroundImageFix"/>
<feBlend mode="normal" in="SourceGraphic" in2="BackgroundImageFix" result="shape"/>
<feColorMatrix in="SourceAlpha" type="matrix" values="0 0 0 0 0 0 0 0 0 0 0 0 0 0 0 0 0 0 127 0" result="hardAlpha"/>
<feOffset dy="0.3"/>
<feGaussianBlur stdDeviation="0.5"/>
<feComposite in2="hardAlpha" operator="arithmetic" k2="-1" k3="1"/>
<feColorMatrix type="matrix" values="0 0 0 0 0.866667 0 0 0 0 0.745098 0 0 0 0 0.270588 0 0 0 1 0"/>
<feBlend mode="normal" in2="shape" result="effect1_innerShadow_5168_9579"/>
<feColorMatrix in="SourceAlpha" type="matrix" values="0 0 0 0 0 0 0 0 0 0 0 0 0 0 0 0 0 0 127 0" result="hardAlpha"/>
<feOffset dy="-0.3"/>
<feGaussianBlur stdDeviation="0.5"/>
<feComposite in2="hardAlpha" operator="arithmetic" k2="-1" k3="1"/>
<feColorMatrix type="matrix" values="0 0 0 0 0.815686 0 0 0 0 0.588235 0 0 0 0 0.286275 0 0 0 1 0"/>
<feBlend mode="normal" in2="effect1_innerShadow_5168_9579" result="effect2_innerShadow_5168_9579"/>
</filter>
<linearGradient id="paint0_linear_5168_9579" x1="50.5242" y1="33.4958" x2="8.85237" y2="33.4959" gradientUnits="userSpaceOnUse">
<stop stop-color="#FFE74D"/>
<stop offset="1" stop-color="#F3C240"/>
</linearGradient>
<linearGradient id="paint1_linear_5168_9579" x1="53.0375" y1="28.9557" x2="48.2542" y2="28.9557" gradientUnits="userSpaceOnUse">
<stop stop-color="#FFF250"/>
<stop offset="1" stop-color="#FFF250" stop-opacity="0"/>
</linearGradient>
</defs>
</svg>
