<svg width="56" height="56" viewBox="0 0 56 56" fill="none" xmlns="http://www.w3.org/2000/svg">
<g filter="url(#filter0_i_5168_9594)">
<path d="M8.74992 50.81H47.2149C50.1199 50.81 52.4824 48.4475 52.4824 45.5425V35.0425C52.4824 33.1175 50.9249 31.5425 48.9824 31.5425H6.98242C5.05742 31.5425 3.48242 33.1 3.48242 35.0425V45.5425C3.48242 48.465 5.84492 50.81 8.74992 50.81Z" fill="url(#paint0_linear_5168_9594)"/>
</g>
<g filter="url(#filter1_f_5168_9594)">
<path d="M13.6152 47.9624C37.5987 47.9624 44.6191 44.6925 44.6191 43.0924C44.6191 41.4922 36.3996 38.2191 13.6152 38.2191V47.9624Z" fill="url(#paint1_radial_5168_9594)"/>
</g>
<path d="M48.9824 29.8101H6.98242C5.05742 29.8101 3.48242 31.3676 3.48242 33.3101V36.8101H52.4649V33.3101C52.4649 31.3851 50.9074 29.8101 48.9824 29.8101Z" fill="url(#paint2_linear_5168_9594)"/>
<path d="M48.9824 29.8101H6.98242C5.05742 29.8101 3.48242 31.3676 3.48242 33.3101V36.8101H52.4649V33.3101C52.4649 31.3851 50.9074 29.8101 48.9824 29.8101Z" fill="url(#paint3_linear_5168_9594)"/>
<g filter="url(#filter2_i_5168_9594)">
<path d="M42.4197 12.2051L12.4422 42.1826C12.0922 42.5326 12.0922 43.0926 12.4422 43.4426C12.7922 43.7926 13.3522 43.7926 13.7022 43.4426L43.6797 13.4651C44.0297 13.1151 44.0297 12.5551 43.6797 12.2051C43.3297 11.8551 42.7697 11.8551 42.4197 12.2051Z" fill="url(#paint4_linear_5168_9594)"/>
<path d="M42.4197 12.2051L12.4422 42.1826C12.0922 42.5326 12.0922 43.0926 12.4422 43.4426C12.7922 43.7926 13.3522 43.7926 13.7022 43.4426L43.6797 13.4651C44.0297 13.1151 44.0297 12.5551 43.6797 12.2051C43.3297 11.8551 42.7697 11.8551 42.4197 12.2051Z" fill="url(#paint5_radial_5168_9594)"/>
</g>
<path d="M39.9175 43.6526C41.2475 44.9826 43.33 45.0876 44.3275 43.7926C51.1525 34.8676 50.435 21.9876 42.21 13.7626C33.985 5.53755 21.07 4.80255 12.145 11.6276C10.85 12.6076 10.955 14.6901 12.285 16.0201L13.615 17.3501L26.8782 30.7252L38.57 42.3051L39.9175 43.6526Z" fill="url(#paint6_linear_5168_9594)"/>
<path d="M39.9175 43.6526C41.2475 44.9826 43.33 45.0876 44.3275 43.7926C51.1525 34.8676 50.435 21.9876 42.21 13.7626C33.985 5.53755 21.07 4.80255 12.145 11.6276C10.85 12.6076 10.955 14.6901 12.285 16.0201L13.615 17.3501L26.8782 30.7252L38.57 42.3051L39.9175 43.6526Z" fill="url(#paint7_radial_5168_9594)"/>
<path d="M39.9175 43.6526C41.2475 44.9826 43.33 45.0876 44.3275 43.7926C51.1525 34.8676 50.435 21.9876 42.21 13.7626C33.985 5.53755 21.07 4.80255 12.145 11.6276C10.85 12.6076 10.955 14.6901 12.285 16.0201L13.615 17.3501L26.8782 30.7252L38.57 42.3051L39.9175 43.6526Z" fill="url(#paint8_linear_5168_9594)"/>
<path d="M39.9175 43.6526C41.2475 44.9826 43.33 45.0876 44.3275 43.7926C51.1525 34.8676 50.435 21.9876 42.21 13.7626C33.985 5.53755 21.07 4.80255 12.145 11.6276C10.85 12.6076 10.955 14.6901 12.285 16.0201L13.615 17.3501L26.8782 30.7252L38.57 42.3051L39.9175 43.6526Z" fill="url(#paint9_linear_5168_9594)"/>
<path d="M39.9175 43.6526C41.2475 44.9826 43.33 45.0876 44.3275 43.7926C51.1525 34.8676 50.435 21.9876 42.21 13.7626C33.985 5.53755 21.07 4.80255 12.145 11.6276C10.85 12.6076 10.955 14.6901 12.285 16.0201L13.615 17.3501L26.8782 30.7252L38.57 42.3051L39.9175 43.6526Z" fill="url(#paint10_radial_5168_9594)"/>
<path d="M42.3905 13.9834C49.015 20.9311 47.3413 33.5165 38.5527 42.305L32.2951 36.043L32.3052 36.04C40.9836 27.3616 45.3926 17.6325 42.3905 13.9834Z" fill="url(#paint11_linear_5168_9594)"/>
<path d="M42.3905 13.9834C49.015 20.9311 47.3413 33.5165 38.5527 42.305L32.2951 36.043L32.3052 36.04C40.9836 27.3616 45.3926 17.6325 42.3905 13.9834Z" fill="url(#paint12_linear_5168_9594)"/>
<path d="M41.9121 13.5053C34.9632 6.88888 22.4007 8.56455 13.6152 17.35L19.8292 23.6103C28.515 14.9273 38.2572 10.5016 41.9121 13.5053Z" fill="url(#paint13_linear_5168_9594)"/>
<path d="M41.9121 13.5053C34.9632 6.88888 22.4007 8.56455 13.6152 17.35L19.8292 23.6103C28.515 14.9273 38.2572 10.5016 41.9121 13.5053Z" fill="url(#paint14_linear_5168_9594)"/>
<g filter="url(#filter3_f_5168_9594)">
<path d="M12.9307 42.6437L22.6861 32.8732" stroke="url(#paint15_linear_5168_9594)" stroke-width="0.25" stroke-linecap="round"/>
</g>
<defs>
<filter id="filter0_i_5168_9594" x="3.33242" y="31.5425" width="49.15" height="19.2675" filterUnits="userSpaceOnUse" color-interpolation-filters="sRGB">
<feFlood flood-opacity="0" result="BackgroundImageFix"/>
<feBlend mode="normal" in="SourceGraphic" in2="BackgroundImageFix" result="shape"/>
<feColorMatrix in="SourceAlpha" type="matrix" values="0 0 0 0 0 0 0 0 0 0 0 0 0 0 0 0 0 0 127 0" result="hardAlpha"/>
<feOffset dx="-0.15"/>
<feGaussianBlur stdDeviation="0.25"/>
<feComposite in2="hardAlpha" operator="arithmetic" k2="-1" k3="1"/>
<feColorMatrix type="matrix" values="0 0 0 0 1 0 0 0 0 0.886275 0 0 0 0 0.45098 0 0 0 1 0"/>
<feBlend mode="normal" in2="shape" result="effect1_innerShadow_5168_9594"/>
</filter>
<filter id="filter1_f_5168_9594" x="12.6152" y="37.2191" width="33.0039" height="11.7433" filterUnits="userSpaceOnUse" color-interpolation-filters="sRGB">
<feFlood flood-opacity="0" result="BackgroundImageFix"/>
<feBlend mode="normal" in="SourceGraphic" in2="BackgroundImageFix" result="shape"/>
<feGaussianBlur stdDeviation="0.5" result="effect1_foregroundBlur_5168_9594"/>
</filter>
<filter id="filter2_i_5168_9594" x="12.1797" y="11.7426" width="31.7627" height="31.9625" filterUnits="userSpaceOnUse" color-interpolation-filters="sRGB">
<feFlood flood-opacity="0" result="BackgroundImageFix"/>
<feBlend mode="normal" in="SourceGraphic" in2="BackgroundImageFix" result="shape"/>
<feColorMatrix in="SourceAlpha" type="matrix" values="0 0 0 0 0 0 0 0 0 0 0 0 0 0 0 0 0 0 127 0" result="hardAlpha"/>
<feOffset dy="-0.2"/>
<feGaussianBlur stdDeviation="0.25"/>
<feComposite in2="hardAlpha" operator="arithmetic" k2="-1" k3="1"/>
<feColorMatrix type="matrix" values="0 0 0 0 0.498039 0 0 0 0 0.262745 0 0 0 0 0.109804 0 0 0 1 0"/>
<feBlend mode="normal" in2="shape" result="effect1_innerShadow_5168_9594"/>
</filter>
<filter id="filter3_f_5168_9594" x="12.5557" y="32.4982" width="10.5059" height="10.5205" filterUnits="userSpaceOnUse" color-interpolation-filters="sRGB">
<feFlood flood-opacity="0" result="BackgroundImageFix"/>
<feBlend mode="normal" in="SourceGraphic" in2="BackgroundImageFix" result="shape"/>
<feGaussianBlur stdDeviation="0.125" result="effect1_foregroundBlur_5168_9594"/>
</filter>
<linearGradient id="paint0_linear_5168_9594" x1="47.2649" y1="49.3864" x2="21.033" y2="34.6965" gradientUnits="userSpaceOnUse">
<stop stop-color="#FFC250"/>
<stop offset="1" stop-color="#FFB000"/>
</linearGradient>
<radialGradient id="paint1_radial_5168_9594" cx="0" cy="0" r="1" gradientUnits="userSpaceOnUse" gradientTransform="translate(42.456 42.4792) rotate(180) scale(33.6395 9.2339)">
<stop stop-color="#D7731C"/>
<stop offset="1" stop-color="#D7731C" stop-opacity="0"/>
</radialGradient>
<linearGradient id="paint2_linear_5168_9594" x1="3.48242" y1="33.3174" x2="52.4688" y2="33.3174" gradientUnits="userSpaceOnUse">
<stop stop-color="#49ADE8"/>
<stop offset="1" stop-color="#6CEDFD"/>
</linearGradient>
<linearGradient id="paint3_linear_5168_9594" x1="52.8476" y1="34.3846" x2="51.0179" y2="34.3846" gradientUnits="userSpaceOnUse">
<stop stop-color="#7DF8FF"/>
<stop offset="1" stop-color="#7DF8FF" stop-opacity="0"/>
</linearGradient>
<linearGradient id="paint4_linear_5168_9594" x1="43.7272" y1="12.2221" x2="12.4875" y2="43.4619" gradientUnits="userSpaceOnUse">
<stop stop-color="#A66459"/>
<stop offset="0.588542" stop-color="#8A3F42"/>
<stop offset="1" stop-color="#7B4230"/>
</linearGradient>
<radialGradient id="paint5_radial_5168_9594" cx="0" cy="0" r="1" gradientUnits="userSpaceOnUse" gradientTransform="translate(43.8403 12.091) rotate(139.857) scale(1.61242 1.03385)">
<stop stop-color="#C18E80"/>
<stop offset="0.993283" stop-color="#C18E80" stop-opacity="0"/>
</radialGradient>
<linearGradient id="paint6_linear_5168_9594" x1="38.7099" y1="23.5762" x2="23.0692" y2="27.1856" gradientUnits="userSpaceOnUse">
<stop stop-color="#FF6072"/>
<stop offset="1" stop-color="#EC3A51"/>
</linearGradient>
<radialGradient id="paint7_radial_5168_9594" cx="0" cy="0" r="1" gradientUnits="userSpaceOnUse" gradientTransform="translate(28.3022 32.123) rotate(-23.1654) scale(22.4723 35.4429)">
<stop offset="0.767914" stop-color="#EA596B" stop-opacity="0"/>
<stop offset="1" stop-color="#EA596B"/>
</radialGradient>
<linearGradient id="paint8_linear_5168_9594" x1="22.8888" y1="29.3418" x2="27.9546" y2="24.276" gradientUnits="userSpaceOnUse">
<stop stop-color="#CB3A43"/>
<stop offset="0.481167" stop-color="#D92E49"/>
<stop offset="0.671191" stop-color="#D92E49" stop-opacity="0"/>
</linearGradient>
<linearGradient id="paint9_linear_5168_9594" x1="51.9426" y1="39.1754" x2="39.6257" y2="30.3351" gradientUnits="userSpaceOnUse">
<stop stop-color="#EE442B"/>
<stop offset="1" stop-color="#EE442B" stop-opacity="0"/>
</linearGradient>
<radialGradient id="paint10_radial_5168_9594" cx="0" cy="0" r="1" gradientUnits="userSpaceOnUse" gradientTransform="translate(35.7567 28.9356) rotate(-119.416) scale(23.6057 39.3812)">
<stop stop-color="#CA3E4B" stop-opacity="0"/>
<stop offset="0.611421" stop-color="#CA3E4B" stop-opacity="0"/>
<stop offset="1" stop-color="#CA3E4B"/>
</radialGradient>
<linearGradient id="paint11_linear_5168_9594" x1="26.3507" y1="30.248" x2="41.9913" y2="14.6074" gradientUnits="userSpaceOnUse">
<stop stop-color="#E5DFEA"/>
<stop offset="1" stop-color="#FEFCFF"/>
</linearGradient>
<linearGradient id="paint12_linear_5168_9594" x1="23.9444" y1="31.6699" x2="28.8116" y2="26.8027" gradientUnits="userSpaceOnUse">
<stop stop-color="#C9B9C9"/>
<stop offset="0.61236" stop-color="#D4C9DC"/>
<stop offset="0.814607" stop-color="#D4C9DC" stop-opacity="0"/>
</linearGradient>
<linearGradient id="paint13_linear_5168_9594" x1="26.3507" y1="30.248" x2="41.9913" y2="14.6074" gradientUnits="userSpaceOnUse">
<stop stop-color="#E5DFEA"/>
<stop offset="1" stop-color="#FEFCFF"/>
</linearGradient>
<linearGradient id="paint14_linear_5168_9594" x1="23.9444" y1="31.6699" x2="28.8116" y2="26.8027" gradientUnits="userSpaceOnUse">
<stop stop-color="#C9B9C9"/>
<stop offset="0.61236" stop-color="#D4C9DC"/>
<stop offset="0.814607" stop-color="#D4C9DC" stop-opacity="0"/>
</linearGradient>
<linearGradient id="paint15_linear_5168_9594" x1="13.6079" y1="41.5863" x2="23.7623" y2="39.4031" gradientUnits="userSpaceOnUse">
<stop stop-color="#7F5951"/>
<stop offset="1" stop-color="#7F5951" stop-opacity="0"/>
</linearGradient>
</defs>
</svg>
